<svg width="10" height="11" viewBox="0 0 10 11" fill="none" xmlns="http://www.w3.org/2000/svg">
<g id="Icons / Brand / Root">
<path id="Fill 1" fill-rule="evenodd" clip-rule="evenodd" d="M9.56815 5.20031C9.36218 4.98079 9.12055 4.78618 8.84593 4.62772C8.01911 4.15031 7.17257 4.31993 6.6968 4.50425C6.94267 4.34387 7.1968 4.05118 7.39757 3.64406C7.48295 3.47089 7.64872 3.03887 7.64872 2.6107C7.64872 2.29733 7.59824 1.98733 7.50545 1.69291C7.45584 1.54608 7.38545 1.3631 7.3819 1.36541C7.25132 1.37589 7.02372 1.43425 7.04843 1.42464C6.75526 1.4932 6.46565 1.60474 6.19103 1.76329C5.36411 2.2407 5.08776 3.05858 5.00949 3.56281C4.99353 3.26964 4.86709 2.9032 4.61497 2.52579C4.50776 2.36522 4.21651 2.00579 3.84555 1.79166C3.57411 1.63493 3.28026 1.52406 2.97872 1.45724C2.92065 1.44589 2.66084 1.40416 2.63315 1.40031C2.62593 1.40522 2.50911 1.7357 2.51776 1.71858C2.43055 2.00675 2.38286 2.31329 2.38286 2.63031C2.38286 3.58512 2.95305 4.23339 3.35055 4.55329C3.08863 4.4205 2.70815 4.34685 2.25526 4.37647C2.06257 4.38906 1.60565 4.46156 1.23478 4.6757C0.963339 4.83243 0.720069 5.03108 0.511608 5.25868C0.517377 5.25214 0.283243 5.54002 0.289396 5.52974C0.279108 5.52839 0.509973 5.79349 0.50757 5.78916C0.713531 6.00868 0.955166 6.20329 1.22978 6.36185C2.05661 6.83916 2.90305 6.66954 3.37892 6.48531C3.13295 6.6456 2.87892 6.93839 2.67815 7.34541C2.59267 7.51858 2.42699 7.9506 2.42699 8.37877C2.42699 8.69223 2.47738 9.00214 2.57026 9.29656C2.55997 9.28445 2.68892 9.62512 2.69382 9.62406C2.78093 9.61195 2.96045 9.58339 3.02718 9.56483C3.32045 9.49637 3.60997 9.38483 3.88468 9.22618C4.71161 8.74877 4.98786 7.93089 5.06622 7.42666C5.08209 7.71983 5.20853 8.08627 5.46065 8.46368C5.56795 8.62425 5.8592 8.98368 6.23007 9.19781C6.50161 9.35464 6.79545 9.4655 7.09699 9.53224C7.11863 9.533 7.3719 9.59358 7.44257 9.58916C7.4617 9.59137 7.55767 9.25848 7.55795 9.27089C7.64507 8.98281 7.69276 8.67618 7.69276 8.35916C7.69276 7.40435 7.12266 6.75608 6.72516 6.43618C6.98699 6.56897 7.36757 6.64262 7.82045 6.613C8.01315 6.60041 8.47007 6.52791 8.84093 6.31377C9.11228 6.15704 9.35555 5.95849 9.56411 5.73089C9.55959 5.7332 9.79449 5.45993 9.78622 5.45974C9.80017 5.45147 9.55593 5.19329 9.56815 5.20031Z" fill="black"/>
</g>
</svg>
